<!DOCTYPE svg PUBLIC "-//W3C//DTD SVG 1.1//EN" "http://www.w3.org/Graphics/SVG/1.1/DTD/svg11.dtd">
<!-- Uploaded to: SVG Repo, www.svgrepo.com, Transformed by: SVG Repo Mixer Tools -->
<svg fill="#ffffff" height="800px" width="800px" version="1.1" id="Capa_1" xmlns="http://www.w3.org/2000/svg" xmlns:xlink="http://www.w3.org/1999/xlink" viewBox="0 0 339.988 339.988" xml:space="preserve" stroke="#ffffff">
<g id="SVGRepo_bgCarrier" stroke-width="0"/>
<g id="SVGRepo_tracerCarrier" stroke-linecap="round" stroke-linejoin="round"/>
<g id="SVGRepo_iconCarrier"> <g> <path d="M336.467,8.378c-0.075-2.651-2.206-4.782-4.857-4.857L206.795,0.003c-1.368-0.044-2.704,0.491-3.676,1.462L1.464,203.119 C0.526,204.057,0,205.328,0,206.655c0,1.326,0.526,2.598,1.464,3.536l128.334,128.333c0.976,0.976,2.256,1.464,3.536,1.464 s2.559-0.488,3.535-1.464L338.524,136.87c0.972-0.972,1.5-2.302,1.462-3.677L336.467,8.378z M209.323,176.408 c-0.666,1.638-2.005,2.909-3.676,3.488l-3.766,1.305c-2.894,1.003-6.081-0.281-7.472-3.006c-2.116-4.144-4.949-8.37-8.193-12.222 l-0.431-0.511l-20.544,20.544l0.243,0.41c10.024,16.847,17.329,34.366,3.035,48.366c-4.488,4.488-10.424,6.883-17.122,6.884h-0.001 c-2.742,0-5.607-0.403-8.516-1.198c-6.465-1.766-13.439-5.622-20.165-11.153l-0.429-0.352l-6.419,6.418 c-2.396,2.396-6.28,2.396-8.676-0.001l-2.803-2.803c-2.396-2.395-2.396-6.28-0.001-8.676l6.496-6.497l-0.334-0.426 c-6.009-7.674-10.57-16.615-12.841-25.174c-0.459-1.728-0.141-3.57,0.871-5.044c1.011-1.474,2.615-2.434,4.392-2.628l3.991-0.437 c2.985-0.319,5.766,1.555,6.575,4.445c1.593,5.693,4.61,11.771,8.495,17.114l0.422,0.58l22.38-22.381l-0.228-0.406 c-11.121-19.739-11.304-32.724-0.61-43.418c4.343-4.343,9.939-6.639,16.185-6.639c7.642,0,16.195,3.334,24.736,9.642l0.425,0.314 l6.73-6.729c2.395-2.395,6.279-2.395,8.676,0l2.803,2.803c1.15,1.15,1.797,2.711,1.797,4.338c0,1.627-0.646,3.188-1.797,4.338 l-6.267,6.267l0.376,0.431c4.472,5.124,8.542,11.143,11.459,16.952C209.915,172.925,209.988,174.77,209.323,176.408z M287.895,90.431c-10.586,10.587-27.75,10.586-38.336,0c-10.588-10.587-10.588-27.751,0-38.337 c10.586-10.587,27.75-10.587,38.336,0C298.48,62.681,298.483,79.844,287.895,90.431z"/> <path d="M147.161,224.808c4.299,1.174,7.719,0.656,9.935-1.561c5.075-4.971,4.219-11.179-3.344-24.65l-0.396-0.706l-19.523,19.521 l0.549,0.426C138.963,221.398,143.262,223.742,147.161,224.808z"/> <path d="M155.477,151.105c-5.025,5.025-3.365,11.237,0.943,19.63l0.384,0.749l16.917-16.915l-0.624-0.415 c-4.743-3.157-9.227-4.896-12.623-4.896C158.384,149.258,156.703,149.879,155.477,151.105z"/> </g> </g>
</svg>