<svg width="1281" height="438" viewBox="0 0 1281 438" fill="none" xmlns="http://www.w3.org/2000/svg">
<path d="M819.779 198.97C819.987 200.689 820.197 202.427 820.41 204.181L823.714 231.401C826.032 250.516 828.042 267.094 831.55 280.324C835.323 294.555 841.545 307.963 854.518 318.595C867.491 329.228 882.731 333.409 898.595 335.27C913.342 337.003 931.558 337 952.563 337H1093.29C1107.7 337 1120.41 337 1131.02 336.013C1142.52 334.945 1153.69 332.576 1164.44 326.652C1175.18 320.728 1182.7 312.794 1189.11 303.989C1195.03 295.862 1200.98 285.576 1207.71 273.926L1273.16 160.733C1296.38 120.571 1264.58 72.2137 1214.95 72.2137H949.407C923.571 72.2127 901.468 72.2117 883.972 74.4497C875.117 75.5827 866.44 77.3967 858.302 80.4887L854.521 49.3247C851.114 21.2437 825.192 0 794.336 0H781.191C766.672 0 754.902 10.7767 754.902 24.0717C754.902 37.3657 766.672 48.1427 781.191 48.1427H794.336C798.402 48.1427 801.817 50.9417 802.266 54.6417L819.779 198.97Z" fill="#FF5C00"/>
<path fill-rule="evenodd" clip-rule="evenodd" d="M754.902 395.084C754.902 371.842 775.749 353 801.465 353C827.18 353 848.027 371.842 848.027 395.084C848.027 418.325 827.18 437.167 801.465 437.167C775.749 437.167 754.902 418.325 754.902 395.084Z" fill="#FF5C00"/>
<path fill-rule="evenodd" clip-rule="evenodd" d="M922.027 395.084C922.027 371.842 942.874 353 968.59 353C994.302 353 1015.15 371.842 1015.15 395.084C1015.15 418.325 994.302 437.167 968.59 437.167C942.874 437.167 922.027 418.325 922.027 395.084Z" fill="#FF5C00"/>
<path d="M541.839 62.8938H705.76" stroke="#FF5C00" stroke-width="22" stroke-linecap="round"/>
<path d="M324.289 374.339H655.168" stroke="#FF5C00" stroke-width="22" stroke-linecap="round"/>
<path d="M52.58 293.483C43.34 293.483 33.9534 292.309 24.42 289.963C14.8867 287.763 6.82 284.756 0.219999 280.943L8.14 245.083C16.6467 249.629 24.5667 252.636 31.9 254.103C39.38 255.423 46.2734 256.083 52.58 256.083C58.4467 256.083 62.8467 255.129 65.7801 253.223C68.8601 251.316 70.4 248.749 70.4 245.523C70.4 242.589 68.7134 240.316 65.34 238.703C61.9667 236.943 57.5667 235.329 52.14 233.863C46.86 232.396 41.2134 230.709 35.2 228.803C29.1867 226.749 23.4667 224.109 18.04 220.883C12.76 217.509 8.4334 213.109 5.06 207.683C1.6867 202.109 0 195.143 0 186.783C0 176.223 2.5667 167.129 7.7 159.503C12.8334 151.729 20.1667 145.789 29.7 141.683C39.2334 137.429 50.4534 135.303 63.36 135.303C72.0134 135.303 80.4465 136.476 88.6605 138.823C97.0205 141.023 103.693 144.029 108.68 147.843L101.201 180.183C93.7205 177.103 86.9735 174.903 80.9605 173.583C75.0934 172.116 69.52 171.383 64.2401 171.383C58.0801 171.383 53.3867 172.263 50.16 174.023C46.9334 175.783 45.32 178.129 45.32 181.063C45.32 183.849 47.0067 186.123 50.3801 187.883C53.7534 189.643 58.0801 191.329 63.36 192.943C68.6401 194.556 74.2867 196.389 80.3005 198.443C86.3135 200.496 91.9605 203.209 97.2405 206.583C102.521 209.956 106.847 214.356 110.221 219.783C113.594 225.209 115.281 232.029 115.281 240.243C115.281 257.256 109.707 270.383 98.5605 279.623C87.5605 288.863 72.2334 293.483 52.58 293.483ZM130.445 289.963V138.603H174.445L233.844 218.903V138.603H274.325V289.963H230.324L170.924 212.963V289.963H130.445ZM287.333 289.963L329.133 138.603H400.413L444.193 289.963H390.293L384.573 260.923H345.413L339.033 289.963H287.333ZM350.033 233.863H379.293L364.993 167.643L350.033 233.863ZM526.365 293.483C510.525 293.483 496.665 290.329 484.785 284.023C473.052 277.569 463.885 268.549 457.285 256.963C450.832 245.376 447.605 231.883 447.605 216.483C447.605 200.643 450.979 186.636 457.725 174.463C464.619 162.289 474.005 152.756 485.885 145.863C497.912 138.823 511.699 135.303 527.245 135.303C544.552 135.303 558.118 138.676 567.944 145.423L562.004 180.403C557.751 178.349 553.278 176.883 548.584 176.003C544.038 174.976 539.711 174.463 535.604 174.463C523.578 174.463 514.119 178.056 507.225 185.243C500.332 192.429 496.884 202.403 496.884 215.163C496.884 227.189 500.185 236.649 506.785 243.543C513.532 250.289 522.844 253.663 534.724 253.663C539.418 253.663 543.671 253.223 547.484 252.343C551.444 251.463 556.284 249.849 562.004 247.503L568.164 282.263C555.404 289.743 541.472 293.483 526.365 293.483ZM584.065 289.963V138.603H635.105V198.883H650.725L680.206 138.603H735.206L695.165 213.623L740.706 289.963H682.625L650.065 231.663H635.105V289.963H584.065Z" fill="#FF5C00"/>
<path d="M884.008 255.94L857.488 138.98H895.738L906.788 211.91L918.178 158.87H957.788L969.348 211.91L980.393 138.98H1018.64L992.123 255.94H952.518L938.068 191.85L923.618 255.94H884.008ZM1015.56 255.94L1047.86 138.98H1102.94L1136.77 255.94H1095.12L1090.7 233.5H1060.44L1055.51 255.94H1015.56ZM1064.01 212.59H1086.62L1075.57 161.42L1064.01 212.59ZM1159.65 255.94V223.47L1125.99 138.98H1162.54L1179.03 190.66L1195.18 138.98H1231.56L1196.2 223.47V255.94H1159.65Z" fill="white"/>
</svg>
